<svg xmlns="http://www.w3.org/2000/svg" viewBox="0 0 96 96" role="img" aria-label="Live Projects">
  <defs>
    <linearGradient id="liveTile" x1="14" y1="82" x2="82" y2="14" gradientUnits="userSpaceOnUse">
      <stop offset="0" stop-color="#0b1f0f"/>
      <stop offset=".52" stop-color="#38ff46"/>
      <stop offset="1" stop-color="#c7ff00"/>
    </linearGradient>
    <radialGradient id="livePulse" cx="75%" cy="24%" r="54%">
      <stop offset="0" stop-color="#ffffff" stop-opacity=".95"/>
      <stop offset=".28" stop-color="#9dff00" stop-opacity=".65"/>
      <stop offset="1" stop-color="#9dff00" stop-opacity="0"/>
    </radialGradient>
    <filter id="liveGlow" x="-38%" y="-38%" width="176%" height="176%">
      <feDropShadow dx="0" dy="0" stdDeviation="5" flood-color="#9dff00" flood-opacity=".72"/>
      <feDropShadow dx="0" dy="12" stdDeviation="12" flood-color="#000" flood-opacity=".38"/>
    </filter>
  </defs>
  <rect x="5" y="5" width="86" height="86" rx="24" fill="#041006"/>
  <rect x="8" y="8" width="80" height="80" rx="22" fill="url(#liveTile)" filter="url(#liveGlow)"/>
  <rect x="8" y="8" width="80" height="80" rx="22" fill="url(#livePulse)"/>
  <path fill="#061107" d="M23.5 25.5h13v31.8h16.8v12.2H23.5v-44Zm35.1 0h13.2v44H58.6v-44Z"/>
  <path fill="#dffffc" d="M27.8 21.8h13v31.8h16.8v12.2H27.8v-44Zm35.1 0h13.2v44H62.9v-44Z" opacity=".96"/>
  <circle cx="75.5" cy="23.7" r="7" fill="#ff2f6d"/>
  <circle cx="75.5" cy="23.7" r="11.5" fill="none" stroke="#ff2f6d" stroke-opacity=".38" stroke-width="3"/>
</svg>
