<svg xmlns="http://www.w3.org/2000/svg" viewBox="0 0 96 96" role="img" aria-label="WhatsApp">
  <defs>
    <radialGradient id="shine" cx="30%" cy="18%" r="70%">
      <stop offset="0" stop-color="#f7fff8" stop-opacity=".92"/>
      <stop offset=".26" stop-color="#7cff9a" stop-opacity=".62"/>
      <stop offset="1" stop-color="#0a7c3b" stop-opacity="0"/>
    </radialGradient>
    <linearGradient id="tile" x1="13" y1="83" x2="82" y2="14" gradientUnits="userSpaceOnUse">
      <stop offset="0" stop-color="#075f32"/>
      <stop offset=".48" stop-color="#18d65b"/>
      <stop offset="1" stop-color="#9dff00"/>
    </linearGradient>
    <filter id="glow" x="-35%" y="-35%" width="170%" height="170%">
      <feDropShadow dx="0" dy="0" stdDeviation="5" flood-color="#31d158" flood-opacity=".58"/>
      <feDropShadow dx="0" dy="10" stdDeviation="10" flood-color="#000" flood-opacity=".32"/>
    </filter>
  </defs>
  <rect x="5" y="5" width="86" height="86" rx="24" fill="#061107"/>
  <rect x="8" y="8" width="80" height="80" rx="22" fill="url(#tile)" filter="url(#glow)"/>
  <rect x="8" y="8" width="80" height="80" rx="22" fill="url(#shine)"/>
  <path fill="#fff" d="M48 21.5A26.5 26.5 0 0 0 25.7 62.3L22 76l14.1-3.7A26.5 26.5 0 1 0 48 21.5Zm0 47.7a21.2 21.2 0 0 1-10.8-2.9l-.8-.5-8.4 2.2 2.2-8.1-.5-.8A21.2 21.2 0 1 1 48 69.2Z"/>
  <path fill="#fff" d="M60.7 53.2c-.7-.4-4.1-2-4.8-2.2-.6-.2-1.1-.4-1.6.4-.5.7-1.9 2.2-2.3 2.7-.4.5-.8.5-1.5.2-4.1-2.1-6.8-3.7-9.5-8.4-.7-1.2.7-1.1 2-3.8.2-.5.1-.9 0-1.3-.2-.4-1.6-3.8-2.2-5.2-.6-1.4-1.2-1.2-1.6-1.2h-1.4c-.5 0-1.3.2-2 1-.7.7-2.7 2.7-2.7 6.5s2.8 7.5 3.2 8c.4.5 5.5 8.5 13.4 11.9 5 2.1 7 2.3 9.5 1.9 1.5-.2 4.1-1.7 4.7-3.3.6-1.6.6-3 .4-3.3-.2-.3-.8-.5-1.6-.9Z"/>
</svg>
